# xmcd
#
# Track frame offsets:
#	150
#	20957
#	44364
#	64996
#	87428
#	108960
#	133792
#	164024
#	203931
#	230488
#	254870
#
# Disc length: 3631 seconds
#
# Revision: 1
# Processed by: cddbd v1.5.2PL0 Copyright (c) Steve Scherf et al.
# Submitted via: audiograbber 1.83.01
#
DISCID=ab0e2d0b
DTITLE=The Protagonist - Songs of Experience
DYEAR=2005
DGENRE=Ambient
TTITLE0=The sick Rose
TTITLE1=Hesperia
TTITLE2=Spirits of the Dead
TTITLE3=Down there
TTITLE4=The Hunt
TTITLE5=Strife
TTITLE6=La Fin de la Journée
TTITLE7=Sermon
TTITLE8=Sacrifice
TTITLE9=Der Wahnsinn
TTITLE10=La Fin de la Journée (Stripped)
EXTD=
EXTT0=
EXTT1=
EXTT2=
EXTT3=
EXTT4=
EXTT5=
EXTT6=
EXTT7=
EXTT8=
EXTT9=
EXTT10=
PLAYORDER=
